<?xml version="1.0" encoding="utf-8"?>
<!-- Generator: Adobe Illustrator 25.3.1, SVG Export Plug-In . SVG Version: 6.00 Build 0)  -->
<svg version="1.1" id="Layer_1" xmlns="http://www.w3.org/2000/svg" xmlns:xlink="http://www.w3.org/1999/xlink" x="0px" y="0px"
	 viewBox="0 0 752.3 136.1" style="enable-background:new 0 0 752.3 136.1;" xml:space="preserve">
<style type="text/css">
	.st0{fill:#808184;}
	.st1{fill:#12BAD2;}
</style>
<g>
	<polygon class="st0" points="575.5,100.9 577.4,100.9 577.4,105.8 578.1,105.8 578.1,100.9 580,100.9 580,100.3 575.5,100.3 	"/>
	<path class="st0" d="M584.8,100.3l-1.6,4.6l-1.6-4.6h-1.1v5.5h0.7v-3.2c0-0.1,0-0.3,0-0.6c0-0.3,0-0.5,0-0.6v-0.2l1.6,4.6h0.7
		l1.6-4.6c0,0.3,0,0.6,0,0.8c0,0.3,0,0.4,0,0.6v3.2h0.7v-5.5H584.8z"/>
</g>
<g>
	<g>
		<path class="st1" d="M56,78.9L0,1.9h4.9l53.3,73.4L111,1.9h4.9l-55.8,77v55.4H56V78.9z"/>
	</g>
	<g>
		<path class="st1" d="M94.4,129.4h3.4v4.9h-3.4V129.4z"/>
	</g>
	<g>
		<path class="st1" d="M140.4,1.9h92.5v3.8h-88.3v60.1h80.2v3.8h-80.2v60.9h89.3v3.8h-93.4V1.9z"/>
	</g>
	<g>
		<path class="st1" d="M250,129.4h3.4v4.9H250V129.4z"/>
	</g>
	<g>
		<path class="st1" d="M261,115l3-3c13.4,13,30.4,20.4,49.7,20.4c24.8,0,40.7-13.4,40.7-31.2v-0.4c0-16.3-9.8-25-43.3-31.8
			c-32.7-6.6-45.2-16.3-45.2-34.8v-0.4C265.9,15.3,284,0,309,0c17.4,0,32.9,5.9,45,15.1l-2.6,3.4c-11.7-8.9-26.5-14.7-42.7-14.7
			c-23.3,0-38.6,14.4-38.6,29.9V34c0,16.1,10.2,24.6,42.7,31.2c34.4,7,45.8,17.4,45.8,35.4v0.4c0,19.7-17.2,35.2-45.2,35.2
			C293.1,136.1,275.1,128.4,261,115z"/>
	</g>
	<g>
		<path class="st1" d="M362.7,129.4h3.4v4.9h-3.4V129.4z"/>
	</g>
	<g>
		<path class="st0" d="M403.2,21.9l-13.5-19h2.9l11.8,16.9l11.8-16.9h2.8l-13.5,19v12.5h-2.3V21.9z"/>
		<path class="st0" d="M421.1,18.7L421.1,18.7c0-8.7,6.3-16.4,15.9-16.4c9.5,0,15.8,7.6,15.8,16.2v0.1c0,8.6-6.3,16.3-15.9,16.3
			S421.1,27.3,421.1,18.7z M450.3,18.7L450.3,18.7c0-7.9-5.7-14.3-13.4-14.3c-7.8,0-13.4,6.3-13.4,14.1v0.1
			c0,7.8,5.7,14.2,13.4,14.2S450.3,26.5,450.3,18.7z"/>
		<path class="st0" d="M460.2,21.3V2.9h2.3V21c0,7.4,4,11.7,10.7,11.7c6.4,0,10.5-3.9,10.5-11.5V2.9h2.3V21c0,9-5.3,13.8-12.9,13.8
			C465.5,34.8,460.2,30.1,460.2,21.3z"/>
		<path class="st0" d="M503.3,5h-11V2.9h24.3V5h-11v29.3h-2.3V5z"/>
		<path class="st0" d="M523.2,2.9h2.3v14.6h20.1V2.9h2.3v31.5h-2.3V19.6h-20.1v14.7h-2.3V2.9z"/>
	</g>
	<g>
		<path class="st1" d="M392.7,51.6h22.8v3.2h-19.2v10.7h17.2v3.2h-17.2v11h19.4V83h-23V51.6z"/>
		<path class="st1" d="M422.4,51.6h3.3l19.8,25.2V51.6h3.5V83h-2.8l-20.3-25.8V83h-3.5V51.6z"/>
		<path class="st1" d="M458.2,51.6h3.6v14h18.2v-14h3.6V83h-3.6V68.9h-18.2V83h-3.6V51.6z"/>
		<path class="st1" d="M503.7,51.3h3.3L521.4,83h-3.8l-3.7-8.3h-17.1L493,83h-3.6L503.7,51.3z M512.5,71.5l-7.1-16l-7.2,16H512.5z"
			/>
		<path class="st1" d="M527.4,51.6h3.3l19.8,25.2V51.6h3.5V83h-2.8l-20.3-25.8V83h-3.5V51.6z"/>
		<path class="st1" d="M561.5,67.4L561.5,67.4c0-9,6.7-16.4,15.9-16.4c5.7,0,9.1,2,12.3,5l-2.4,2.6c-2.7-2.5-5.6-4.3-9.9-4.3
			c-7,0-12.2,5.7-12.2,12.9v0.1c0,7.3,5.3,13,12.2,13c4.3,0,7.1-1.7,10.2-4.5l2.3,2.3c-3.3,3.3-6.9,5.5-12.6,5.5
			C568.2,83.6,561.5,76.4,561.5,67.4z"/>
		<path class="st1" d="M596.1,51.6h22.8v3.2h-19.2v10.7h17.2v3.2h-17.2v11h19.4V83h-23V51.6z"/>
		<path class="st1" d="M625.8,51.6h3.6l11.5,17.2l11.5-17.2h3.6V83h-3.6V57.6l-11.5,16.9h-0.2l-11.5-16.8V83h-3.5V51.6z"/>
		<path class="st1" d="M665.1,51.6h22.8v3.2h-19.2v10.7h17.2v3.2h-17.2v11h19.4V83h-23V51.6z"/>
		<path class="st1" d="M694.7,51.6h3.3l19.8,25.2V51.6h3.5V83h-2.8l-20.3-25.8V83h-3.5V51.6z"/>
		<path class="st1" d="M738.1,54.9h-10.6v-3.3h24.7v3.3h-10.6V83h-3.6V54.9z"/>
	</g>
	<g>
		<path class="st0" d="M390.9,127.2l1.5-1.8c3.5,3.2,6.7,4.7,11.3,4.7c4.7,0,8-2.7,8-6.2v-0.1c0-3.3-1.8-5.3-8.9-6.7
			c-7.6-1.5-10.6-4.1-10.6-8.9v-0.1c0-4.7,4.3-8.3,10.1-8.3c4.6,0,7.6,1.3,10.8,3.8l-1.5,1.8c-3-2.6-5.9-3.6-9.4-3.6
			c-4.6,0-7.7,2.7-7.7,5.9v0.1c0,3.3,1.7,5.4,9.2,6.9c7.3,1.5,10.3,4.1,10.3,8.7v0.1c0,5.1-4.4,8.6-10.4,8.6
			C398.6,132.2,394.7,130.5,390.9,127.2z"/>
		<path class="st0" d="M431.5,119.3l-13.5-19h2.9l11.8,16.9l11.8-16.9h2.8l-13.5,19v12.5h-2.3V119.3z"/>
		<path class="st0" d="M450.1,127.2l1.5-1.8c3.5,3.2,6.7,4.7,11.3,4.7c4.7,0,8-2.7,8-6.2v-0.1c0-3.3-1.8-5.3-8.9-6.7
			c-7.6-1.5-10.6-4.1-10.6-8.9v-0.1c0-4.7,4.3-8.3,10.1-8.3c4.6,0,7.6,1.3,10.8,3.8l-1.5,1.8c-3-2.6-5.9-3.6-9.4-3.6
			c-4.6,0-7.7,2.7-7.7,5.9v0.1c0,3.3,1.7,5.4,9.2,6.9c7.3,1.5,10.3,4.1,10.3,8.7v0.1c0,5.1-4.4,8.6-10.4,8.6
			C457.8,132.2,453.9,130.5,450.1,127.2z"/>
		<path class="st0" d="M489.3,102.4h-11v-2.2h24.3v2.2h-11v29.3h-2.3V102.4z"/>
		<path class="st0" d="M509.2,100.3h22.4v2.2h-20.1v12.4h18v2.2h-18v12.6h20.3v2.2h-22.6V100.3z"/>
		<path class="st0" d="M538.6,100.3h2.2l12.6,18.6l12.6-18.6h2.2v31.5h-2.3v-27.3l-12.5,18.1h-0.2l-12.5-18.1v27.3h-2.2V100.3z"/>
	</g>
</g>
</svg>
